<svg xmlns="http://www.w3.org/2000/svg" xmlns:xlink="http://www.w3.org/1999/xlink" width="642" zoomAndPan="magnify" viewBox="0 0 481.5 281.25" height="375" preserveAspectRatio="xMidYMid meet" version="1.0"><defs><g/><clipPath id="72051dc0b7"><path d="M 0.390625 0 L 480.609375 0 L 480.609375 280.503906 L 0.390625 280.503906 Z M 0.390625 0 " clip-rule="nonzero"/></clipPath><clipPath id="80fe47cdce"><path d="M 187.21875 159.960938 L 205 159.960938 L 205 210.773438 L 187.21875 210.773438 Z M 187.21875 159.960938 " clip-rule="nonzero"/></clipPath><clipPath id="30f3a6d453"><path d="M 193.210938 159.960938 L 198.90625 159.960938 C 202.214844 159.960938 204.898438 162.644531 204.898438 165.953125 L 204.898438 204.335938 C 204.898438 207.640625 202.214844 210.324219 198.90625 210.324219 L 193.210938 210.324219 C 189.902344 210.324219 187.21875 207.640625 187.21875 204.335938 L 187.21875 165.953125 C 187.21875 162.644531 189.902344 159.960938 193.210938 159.960938 " clip-rule="nonzero"/></clipPath><clipPath id="a67e589f8b"><path d="M 184.886719 135.554688 L 206.390625 135.554688 L 206.390625 157.0625 L 184.886719 157.0625 Z M 184.886719 135.554688 " clip-rule="nonzero"/></clipPath><clipPath id="a4e3943422"><path d="M 195.640625 135.554688 C 189.699219 135.554688 184.886719 140.371094 184.886719 146.308594 C 184.886719 152.25 189.699219 157.0625 195.640625 157.0625 C 201.578125 157.0625 206.390625 152.25 206.390625 146.308594 C 206.390625 140.371094 201.578125 135.554688 195.640625 135.554688 " clip-rule="nonzero"/></clipPath><clipPath id="29b7ad0521"><path d="M 38.261719 60.242188 L 101.371094 60.242188 L 101.371094 121.246094 L 38.261719 121.246094 Z M 38.261719 60.242188 " clip-rule="nonzero"/></clipPath><clipPath id="2b7e12cde1"><path d="M 59.230469 60.242188 L 80.332031 60.242188 C 85.894531 60.242188 91.226562 62.449219 95.160156 66.382812 C 99.089844 70.3125 101.300781 75.648438 101.300781 81.207031 L 101.300781 100.171875 C 101.300781 105.734375 99.089844 111.066406 95.160156 114.996094 C 91.226562 118.929688 85.894531 121.136719 80.332031 121.136719 L 59.230469 121.136719 C 53.667969 121.136719 48.335938 118.929688 44.402344 114.996094 C 40.472656 111.066406 38.261719 105.734375 38.261719 100.171875 L 38.261719 81.207031 C 38.261719 75.648438 40.472656 70.3125 44.402344 66.382812 C 48.335938 62.449219 53.667969 60.242188 59.230469 60.242188 " clip-rule="nonzero"/></clipPath><clipPath id="4a2c06f487"><path d="M 41.859375 61.820312 L 107.003906 61.820312 L 107.003906 126.964844 L 41.859375 126.964844 Z M 41.859375 61.820312 " clip-rule="nonzero"/></clipPath><clipPath id="0f21d7b389"><path d="M 38.261719 145.097656 L 101.371094 145.097656 L 101.371094 206 L 38.261719 206 Z M 38.261719 145.097656 " clip-rule="nonzero"/></clipPath><clipPath id="d3ee756429"><path d="M 59.230469 145.097656 L 80.332031 145.097656 C 85.894531 145.097656 91.226562 147.308594 95.160156 151.238281 C 99.089844 155.171875 101.300781 160.503906 101.300781 166.066406 L 101.300781 185.03125 C 101.300781 190.589844 99.089844 195.921875 95.160156 199.855469 C 91.226562 203.785156 85.894531 205.996094 80.332031 205.996094 L 59.230469 205.996094 C 53.667969 205.996094 48.335938 203.785156 44.402344 199.855469 C 40.472656 195.921875 38.261719 190.589844 38.261719 185.03125 L 38.261719 166.066406 C 38.261719 160.503906 40.472656 155.171875 44.402344 151.238281 C 48.335938 147.308594 53.667969 145.097656 59.230469 145.097656 " clip-rule="nonzero"/></clipPath><clipPath id="797e749e86"><path d="M 41.859375 146.675781 L 107.003906 146.675781 L 107.003906 211.820312 L 41.859375 211.820312 Z M 41.859375 146.675781 " clip-rule="nonzero"/></clipPath></defs><g clip-path="url(#72051dc0b7)"><path fill="#ffffff" d="M 0.390625 0 L 481.109375 0 L 481.109375 287.53125 L 0.390625 287.53125 Z M 0.390625 0 " fill-opacity="1" fill-rule="nonzero"/><path fill="#ffffff" d="M 0.390625 0 L 481.109375 0 L 481.109375 280.792969 L 0.390625 280.792969 Z M 0.390625 0 " fill-opacity="1" fill-rule="nonzero"/></g><g fill="#fb8c00" fill-opacity="1"><g transform="translate(119.103411, 129.380993)"><g><path d="M 14.78125 -69.964844 C 7.488281 -69.964844 3.941406 -65.429688 3.941406 -58.53125 L 3.941406 -11.429688 C 3.941406 -4.53125 7.488281 0 14.78125 0 L 47.496094 0 C 52.816406 0 57.152344 -4.335938 57.152344 -9.65625 C 57.152344 -14.976562 52.816406 -19.3125 47.496094 -19.3125 L 25.621094 -19.3125 L 25.621094 -58.53125 C 25.621094 -65.429688 22.074219 -69.964844 14.78125 -69.964844 Z M 14.78125 -69.964844 "/></g></g></g><path stroke-linecap="butt" transform="matrix(0.748782, 0, 0, 0.748782, 82.574744, 28.284614)" fill="none" stroke-linejoin="miter" d="M 77.912289 36.570531 C 68.17773 36.570531 63.456521 42.611592 63.456521 51.829687 L 63.456521 114.739144 C 63.456521 123.957239 68.17773 129.9983 77.912289 129.9983 L 121.608251 129.9983 C 128.708324 129.9983 134.525062 124.21808 134.525062 117.118007 C 134.525062 109.981418 128.708324 104.201197 121.608251 104.201197 L 92.404574 104.201197 L 92.404574 51.829687 C 92.404574 42.611592 87.683365 36.570531 77.912289 36.570531 Z M 154.23937 29.981706 C 145.819446 29.981706 139.778385 36.022766 139.778385 44.473991 C 139.778385 52.888698 145.819446 58.929759 154.23937 58.929759 C 162.685378 58.929759 168.726439 52.888698 168.726439 44.473991 C 168.726439 36.022766 162.685378 29.981706 154.23937 29.981706 Z M 154.23937 62.884098 C 145.563822 62.884098 141.098237 68.408695 141.098237 76.828619 L 141.098237 117.373631 C 141.098237 125.532715 145.563822 131.318152 154.23937 131.318152 C 162.946218 131.318152 167.411804 125.532715 167.411804 117.373631 L 167.411804 76.828619 C 167.411804 68.408695 162.946218 62.884098 154.23937 62.884098 Z M 205.572736 62.884098 C 185.847994 62.884098 175.821294 71.559645 175.821294 85.243326 C 175.821294 97.612372 182.410119 105.004585 196.897188 106.31922 L 205.572736 107.091307 C 208.207222 107.346931 208.97931 108.150319 208.97931 109.470171 C 208.97931 110.784806 207.403834 111.588194 204.769348 111.588194 C 197.413652 111.588194 191.889055 109.725794 185.30023 107.894695 C 184.788983 107.639072 183.724754 107.639072 182.665743 107.639072 C 176.885522 107.639072 172.67556 111.588194 172.67556 117.373631 C 172.67556 122.09484 174.793583 124.990167 179.003545 126.852566 C 185.044606 129.487053 194.523542 131.318152 205.572736 131.318152 C 225.302694 131.318152 235.324177 122.642604 235.324177 108.953707 C 235.324177 96.042113 229.512656 89.197665 214.248283 87.877813 L 205.572736 87.105726 C 203.454713 86.850102 202.166162 86.850102 202.166162 84.732079 C 202.166162 83.412227 203.454713 82.608839 205.572736 82.608839 C 210.299161 82.608839 214.796048 84.471239 218.458245 85.791091 C 219.517257 86.302338 220.837108 86.563178 222.151743 86.563178 C 227.937181 86.563178 231.886302 82.608839 231.886302 76.828619 C 231.886302 73.677668 230.571667 71.043181 227.937181 68.925158 C 224.530607 66.577596 217.430534 62.884098 205.572736 62.884098 Z M 280.590398 104.201197 L 280.590398 83.928691 L 284.80036 83.928691 C 291.097045 83.928691 295.051383 80.777741 295.051383 74.194132 C 295.051383 67.605307 291.097045 64.198733 284.80036 64.198733 L 280.590398 64.198733 L 280.590398 56.843037 C 280.590398 48.391812 276.093512 43.154139 267.417964 43.154139 C 258.742417 43.154139 254.276832 48.391812 254.276832 56.843037 L 254.276832 64.198733 L 250.035569 64.198733 C 243.738884 64.198733 239.789763 67.605307 239.789763 74.194132 C 239.789763 80.777741 243.738884 83.928691 250.035569 83.928691 L 254.276832 83.928691 L 254.276832 105.004585 C 254.276832 122.898228 264.011391 131.318152 282.682337 131.318152 C 292.703821 131.318152 296.913783 126.049178 296.913783 119.460353 C 296.913783 112.908045 292.416896 108.411159 285.572448 108.411159 C 282.682337 108.411159 280.590398 106.835684 280.590398 104.201197 Z M 335.064281 62.884098 C 322.439612 62.884098 313.2163 65.774208 308.46379 68.664318 C 306.116228 70.239793 303.998204 73.677668 303.998204 76.828619 C 303.998204 81.836752 307.947326 86.563178 314.019688 86.563178 C 315.047398 86.563178 316.111627 86.302338 317.170638 86.046714 C 321.11976 84.732079 326.649574 82.608839 331.918547 82.608839 C 336.384133 82.608839 339.404663 84.215615 340.594095 87.491769 C 317.942726 88.295157 301.619341 94.205798 301.619341 111.588194 C 301.619341 124.21808 308.750714 131.318152 321.3806 131.318152 C 332.946258 131.318152 340.333255 126.435222 344.287593 118.432642 L 344.287593 119.20473 C 344.287593 126.596943 348.205414 131.318152 355.853251 131.318152 C 363.501088 131.318152 367.163285 126.596943 367.163285 119.20473 L 367.163285 92.635539 C 367.163285 73.677668 357.428726 62.884098 335.064281 62.884098 Z M 340.980139 103.142186 C 340.077631 108.411159 336.128509 111.588194 331.918547 111.588194 C 329.284061 111.588194 327.964209 110.529182 327.964209 108.411159 C 327.964209 106.063597 330.181351 103.55953 340.980139 103.142186 Z M 340.980139 103.142186 " stroke="#000000" stroke-width="2.38525" stroke-opacity="1" stroke-miterlimit="4"/><g clip-path="url(#80fe47cdce)"><g clip-path="url(#30f3a6d453)"><path fill="#fb8c00" d="M 187.21875 159.960938 L 204.808594 159.960938 L 204.808594 210.121094 L 187.21875 210.121094 Z M 187.21875 159.960938 " fill-opacity="1" fill-rule="nonzero"/></g></g><g clip-path="url(#a67e589f8b)"><g clip-path="url(#a4e3943422)"><path fill="#5e17eb" d="M 184.886719 135.554688 L 206.390625 135.554688 L 206.390625 157.0625 L 184.886719 157.0625 Z M 184.886719 135.554688 " fill-opacity="1" fill-rule="nonzero"/></g></g><g fill="#5e17eb" fill-opacity="1"><g transform="translate(316.786529, 165.289077)"><g><path d="M -12.34375 62.59375 C -6.523438 62.59375 -3.527344 58.890625 -3.527344 53.25 L -3.527344 8.464844 C -3.527344 2.996094 -6.523438 -0.882812 -12.34375 -0.882812 C -18.160156 -0.882812 -21.160156 2.996094 -21.160156 8.464844 L -21.160156 53.25 C -21.160156 58.890625 -18.160156 62.59375 -12.34375 62.59375 Z M -12.34375 62.59375 "/></g></g></g><path stroke-linecap="butt" transform="matrix(1.142945, 0, 0, 1.142945, 120.276147, 113.388825)" fill="none" stroke-linejoin="miter" d="M 29.471935 23.764892 C 14.796301 23.764892 7.909621 31.516251 7.909621 42.740001 C 7.909621 53.078564 12.732006 58.61525 21.703487 61.01448 L 31.201294 63.437634 C 34.991531 64.469782 35.517858 66.363191 35.517858 67.754198 C 35.517858 69.48014 34.294319 71.206082 30.842435 71.206082 C 26.020051 71.206082 21.870954 70.153428 17.04857 67.060403 C 15.660981 66.195724 14.29048 66.028256 13.090865 66.028256 C 8.774301 66.028256 5.657352 68.953813 5.657352 73.270377 C 5.657352 74.996319 6.351147 76.893146 7.909621 78.451621 C 13.090865 83.608941 21.536019 85.864627 31.201294 85.864627 C 47.056037 85.864627 54.489549 77.586941 54.489549 66.889518 C 54.489549 56.195513 50.172986 51.181737 40.675178 48.591115 L 31.201294 46.191885 C 27.745993 45.327205 26.881313 43.601263 26.881313 41.875321 C 26.881313 39.811026 28.610672 38.420019 31.201294 38.420019 C 34.653178 38.420019 37.223294 39.452167 40.675178 42.210256 C 42.066185 43.266328 43.624659 43.601263 44.991742 43.601263 C 49.814126 43.601263 52.237281 40.675706 52.237281 36.359142 C 52.237281 34.629782 51.73146 32.90384 50.507921 31.516251 C 46.717684 27.028802 37.917088 23.764892 29.471935 23.764892 Z M 68.61835 19.448328 C 63.098753 19.448328 59.141049 23.40945 59.141049 28.946135 C 59.141049 34.462314 63.098753 38.420019 68.61835 38.420019 C 74.155035 38.420019 78.11274 34.462314 78.11274 28.946135 C 78.11274 23.40945 74.155035 19.448328 68.61835 19.448328 Z M 68.61835 41.010641 C 62.931286 41.010641 60.005729 44.63341 60.005729 50.149589 L 60.005729 76.725679 C 60.005729 82.07439 62.931286 85.864627 68.61835 85.864627 C 74.322503 85.864627 77.251478 82.07439 77.251478 76.725679 L 77.251478 50.149589 C 77.251478 44.63341 74.322503 41.010641 68.61835 41.010641 Z M 135.219206 41.010641 C 129.870494 41.010641 126.059751 43.266328 123.657103 47.13859 C 121.592808 43.074936 117.447129 41.010641 111.572091 41.010641 C 105.717559 41.010641 101.653906 43.76873 99.3367 48.338205 C 99.169233 43.854173 96.578611 41.010641 91.73572 41.010641 C 86.745868 41.010641 84.155246 44.107083 84.155246 48.949974 L 84.155246 76.725679 C 84.155246 82.07439 87.080803 85.864627 92.767867 85.864627 C 98.47202 85.864627 101.400995 82.07439 101.400995 76.725679 L 101.400995 59.479929 C 101.400995 57.224243 102.788584 56.024628 104.685412 56.024628 C 106.578821 56.024628 107.949322 57.224243 107.949322 59.479929 L 107.949322 76.725679 C 107.949322 82.07439 110.898803 85.864627 116.58245 85.864627 C 122.269514 85.864627 125.215577 82.07439 125.215577 76.725679 L 125.215577 59.479929 C 125.215577 57.224243 126.415192 56.024628 128.31202 56.024628 C 130.205429 56.024628 131.596436 57.224243 131.596436 59.479929 L 131.596436 76.725679 C 131.596436 82.07439 134.521993 85.864627 140.209058 85.864627 C 145.916628 85.864627 148.842186 82.07439 148.842186 76.725679 L 148.842186 54.804506 C 148.842186 45.665558 143.999295 41.010641 135.219206 41.010641 Z M 183.685708 41.010641 C 177.998644 41.010641 173.767522 43.160379 170.838548 47.224032 C 170.230196 43.433795 167.725016 41.010641 163.32301 41.010641 C 158.333158 41.010641 155.742536 44.107083 155.742536 48.949974 L 155.742536 93.971428 C 155.742536 99.320139 158.668093 103.110376 164.355157 103.110376 C 170.062728 103.110376 172.988285 99.320139 172.988285 93.971428 L 172.988285 82.156415 C 175.746375 84.579569 179.283701 85.864627 183.685708 85.864627 C 194.718066 85.864627 200.931457 77.586941 200.931457 63.437634 C 200.931457 49.288327 194.718066 41.010641 183.685708 41.010641 Z M 172.988285 63.437634 C 172.988285 58.61525 174.881695 56.024628 178.336997 56.024628 C 181.788881 56.024628 183.685708 58.61525 183.685708 63.437634 C 183.685708 68.260019 181.788881 70.85064 178.336997 70.85064 C 174.881695 70.85064 172.988285 68.260019 172.988285 63.437634 Z M 215.241396 23.764892 C 209.55775 23.764892 206.628775 27.387661 206.628775 32.90384 L 206.628775 76.725679 C 206.628775 82.07439 209.55775 85.864627 215.241396 85.864627 C 220.948967 85.864627 223.874524 82.07439 223.874524 76.725679 L 223.874524 32.90384 C 223.874524 27.387661 220.948967 23.764892 215.241396 23.764892 Z M 253.205285 41.010641 C 238.023831 41.010641 229.558171 50.508449 229.558171 63.963961 C 229.558171 76.366819 237.330036 85.864627 254.575786 85.864627 C 261.144618 85.864627 267.166618 84.306153 271.315714 81.548063 C 272.682797 80.683383 273.906336 78.957441 273.906336 76.725679 C 273.906336 73.102909 271.483182 70.34482 267.860413 70.34482 C 266.134471 70.34482 265.102323 70.679755 263.902708 71.544435 C 262.344234 72.576582 259.059817 73.270377 256.995522 73.270377 C 252.511491 73.270377 249.309099 71.797345 247.774549 68.618878 L 272.176977 68.618878 C 275.273419 68.618878 276.999361 66.534077 276.999361 63.963961 C 276.999361 50.508449 268.38674 41.010641 253.205285 41.010641 Z M 259.059817 58.25639 L 247.162779 58.25639 C 248.024041 54.889949 250.088336 53.604891 253.205285 53.604891 C 256.13426 53.604891 258.113112 55.077923 259.059817 58.25639 Z M 259.059817 58.25639 " stroke="#000000" stroke-width="1.563341" stroke-opacity="1" stroke-miterlimit="4"/><g clip-path="url(#29b7ad0521)"><g clip-path="url(#2b7e12cde1)"><path fill="#5e17eb" d="M 38.261719 60.242188 L 101.371094 60.242188 L 101.371094 121.246094 L 38.261719 121.246094 Z M 38.261719 60.242188 " fill-opacity="1" fill-rule="nonzero"/></g></g><g clip-path="url(#4a2c06f487)"><path fill="#000000" d="M 107.003906 79.191406 C 107.003906 69.605469 99.21875 61.820312 89.632812 61.820312 L 59.230469 61.820312 C 49.644531 61.820312 41.859375 69.605469 41.859375 79.191406 L 41.859375 109.589844 C 41.859375 119.179688 49.644531 126.964844 59.230469 126.964844 L 89.632812 126.964844 C 99.21875 126.964844 107.003906 119.179688 107.003906 109.589844 Z M 102.660156 79.191406 L 102.660156 109.589844 C 102.660156 116.78125 96.824219 122.621094 89.632812 122.621094 C 89.632812 122.621094 59.230469 122.621094 59.230469 122.621094 C 52.042969 122.621094 46.203125 116.78125 46.203125 109.589844 C 46.203125 109.589844 46.203125 79.191406 46.203125 79.191406 C 46.203125 72 52.042969 66.160156 59.230469 66.160156 C 59.230469 66.160156 89.632812 66.160156 89.632812 66.160156 C 96.824219 66.160156 102.660156 72 102.660156 79.191406 Z M 102.660156 79.191406 " fill-opacity="1" fill-rule="evenodd"/></g><path fill="#000000" d="M 68.660156 93.164062 L 88.226562 76.566406 C 88.621094 76.234375 89.117188 76.054688 89.632812 76.054688 L 93.976562 76.054688 C 94.804688 76.054688 95.558594 76.523438 95.921875 77.265625 C 96.289062 78.007812 96.203125 78.890625 95.699219 79.546875 L 70.824219 111.882812 C 70.40625 112.429688 69.75 112.746094 69.058594 112.730469 C 68.371094 112.714844 67.730469 112.375 67.328125 111.8125 L 53.117188 91.738281 L 53.089844 91.695312 L 53.074219 91.675781 L 53.054688 91.644531 L 52.996094 91.546875 L 52.96875 91.496094 C 52.886719 91.339844 52.824219 91.175781 52.78125 91.011719 L 52.769531 90.949219 L 52.75 90.84375 L 52.742188 90.820312 L 52.742188 90.804688 L 52.734375 90.742188 L 52.730469 90.722656 L 52.730469 90.699219 L 52.71875 90.59375 L 52.71875 90.527344 C 52.714844 90.359375 52.730469 90.1875 52.769531 90.015625 L 52.78125 89.953125 L 52.8125 89.847656 L 52.847656 89.742188 L 52.859375 89.714844 L 52.871094 89.679688 L 52.890625 89.636719 L 52.914062 89.578125 L 52.941406 89.523438 L 52.964844 89.480469 L 52.984375 89.441406 L 52.988281 89.429688 L 53.039062 89.347656 L 53.097656 89.253906 L 53.101562 89.25 L 53.160156 89.167969 L 53.164062 89.164062 L 53.226562 89.085938 L 53.296875 89.007812 L 53.304688 89 L 53.371094 88.929688 L 53.378906 88.921875 L 53.449219 88.859375 L 53.460938 88.847656 L 53.496094 88.820312 L 53.527344 88.789062 L 53.546875 88.777344 L 53.582031 88.75 L 53.609375 88.726562 L 53.632812 88.710938 L 53.675781 88.683594 L 53.695312 88.667969 L 53.726562 88.648438 L 53.824219 88.589844 L 53.878906 88.5625 C 54.035156 88.480469 54.195312 88.417969 54.359375 88.375 L 54.421875 88.359375 L 54.527344 88.339844 L 54.550781 88.335938 L 54.566406 88.335938 L 54.628906 88.328125 L 54.648438 88.324219 L 54.671875 88.320312 L 54.777344 88.3125 L 54.84375 88.3125 C 55.011719 88.308594 55.183594 88.324219 55.355469 88.363281 L 55.417969 88.375 L 55.523438 88.40625 L 55.628906 88.441406 Z M 87.945312 82.503906 L 70.507812 97.289062 C 69.914062 97.792969 69.09375 97.941406 68.363281 97.675781 L 60.667969 94.886719 L 69.175781 106.902344 Z M 87.945312 82.503906 " fill-opacity="1" fill-rule="evenodd"/><g clip-path="url(#0f21d7b389)"><g clip-path="url(#d3ee756429)"><path fill="#5e17eb" d="M 38.261719 145.097656 L 101.371094 145.097656 L 101.371094 206.105469 L 38.261719 206.105469 Z M 38.261719 145.097656 " fill-opacity="1" fill-rule="nonzero"/></g></g><g clip-path="url(#797e749e86)"><path fill="#000000" d="M 107.003906 164.046875 C 107.003906 154.460938 99.21875 146.675781 89.632812 146.675781 L 59.230469 146.675781 C 49.644531 146.675781 41.859375 154.460938 41.859375 164.046875 L 41.859375 194.449219 C 41.859375 204.035156 49.644531 211.820312 59.230469 211.820312 L 89.632812 211.820312 C 99.21875 211.820312 107.003906 204.035156 107.003906 194.449219 Z M 102.660156 164.046875 L 102.660156 194.449219 C 102.660156 201.636719 96.824219 207.476562 89.632812 207.476562 C 89.632812 207.476562 59.230469 207.476562 59.230469 207.476562 C 52.042969 207.476562 46.203125 201.636719 46.203125 194.449219 C 46.203125 194.449219 46.203125 164.046875 46.203125 164.046875 C 46.203125 156.859375 52.042969 151.019531 59.230469 151.019531 C 59.230469 151.019531 89.632812 151.019531 89.632812 151.019531 C 96.824219 151.019531 102.660156 156.859375 102.660156 164.046875 Z M 102.660156 164.046875 " fill-opacity="1" fill-rule="evenodd"/></g><path fill="#000000" d="M 68.660156 178.023438 L 88.226562 161.425781 C 88.621094 161.09375 89.117188 160.910156 89.632812 160.910156 L 93.976562 160.910156 C 94.804688 160.910156 95.558594 161.378906 95.921875 162.121094 C 96.289062 162.863281 96.203125 163.75 95.699219 164.40625 L 70.824219 196.738281 C 70.40625 197.285156 69.75 197.601562 69.058594 197.585938 C 68.371094 197.574219 67.730469 197.234375 67.328125 196.671875 L 53.117188 176.59375 L 53.089844 176.554688 L 53.074219 176.53125 L 52.996094 176.40625 L 52.96875 176.351562 C 52.886719 176.195312 52.824219 176.035156 52.78125 175.871094 L 52.769531 175.808594 L 52.75 175.703125 L 52.742188 175.679688 L 52.742188 175.660156 L 52.738281 175.632812 L 52.734375 175.597656 L 52.730469 175.582031 L 52.730469 175.558594 L 52.71875 175.453125 L 52.71875 175.386719 C 52.714844 175.214844 52.730469 175.042969 52.769531 174.875 L 52.78125 174.8125 L 52.8125 174.707031 L 52.832031 174.648438 L 52.847656 174.597656 L 52.859375 174.570312 L 52.871094 174.539062 L 52.890625 174.496094 L 52.914062 174.4375 L 52.933594 174.394531 L 52.941406 174.378906 L 52.964844 174.339844 L 52.984375 174.296875 L 52.988281 174.285156 L 53.039062 174.203125 L 53.097656 174.113281 L 53.101562 174.105469 L 53.160156 174.027344 L 53.164062 174.019531 L 53.226562 173.945312 L 53.296875 173.863281 L 53.371094 173.789062 L 53.378906 173.777344 L 53.449219 173.714844 L 53.460938 173.703125 L 53.496094 173.675781 L 53.527344 173.648438 L 53.546875 173.636719 L 53.582031 173.605469 L 53.609375 173.585938 L 53.632812 173.566406 L 53.675781 173.539062 L 53.695312 173.527344 L 53.726562 173.503906 L 53.824219 173.449219 L 53.878906 173.417969 C 54.035156 173.339844 54.195312 173.273438 54.359375 173.234375 L 54.421875 173.21875 L 54.527344 173.199219 L 54.550781 173.195312 L 54.566406 173.191406 L 54.628906 173.183594 L 54.648438 173.179688 L 54.671875 173.179688 L 54.777344 173.171875 L 54.84375 173.167969 C 55.011719 173.164062 55.183594 173.179688 55.355469 173.21875 L 55.417969 173.234375 L 55.523438 173.265625 L 55.558594 173.273438 L 55.582031 173.285156 L 55.628906 173.296875 Z M 87.945312 167.359375 L 70.507812 182.148438 C 69.914062 182.652344 69.09375 182.800781 68.363281 182.535156 L 60.667969 179.742188 L 69.175781 191.761719 Z M 87.945312 167.359375 " fill-opacity="1" fill-rule="evenodd"/></svg>